<svg width="26" height="25" viewBox="0 0 26 25" fill="none" xmlns="http://www.w3.org/2000/svg">
<path d="M13.0819 0H12.9181C5.78361 0 0 5.49533 0 12.2742V12.4299C0 19.2087 5.78361 24.7041 12.9181 24.7041H13.0819C20.2164 24.7041 26 19.2087 26 12.4299V12.2742C26 5.49533 20.2164 0 13.0819 0Z" fill="#6FB1FF"/>
<path d="M11.0196 19.8192H14.1842V12.2895H16.392L16.6274 9.77013H14.1842V8.33433C14.1842 7.73966 14.3096 7.5046 14.9145 7.5046H16.6274V4.8887H14.4357C12.0809 4.8887 11.0188 5.874 11.0188 7.7603V9.77013H9.37421V12.323H11.0204L11.0196 19.8192Z" fill="white"/>
</svg>
