<svg width="26" height="25" viewBox="0 0 26 25" fill="none" xmlns="http://www.w3.org/2000/svg">
<path d="M13.0004 24.7044C9.55248 24.7044 6.24578 23.4029 3.80773 21.0863C1.36968 18.7698 0 15.6279 0 12.3518C0.000213063 9.07588 1.36998 5.93407 3.80801 3.6177C6.24603 1.30132 9.55262 -6.25528e-09 13.0004 0C16.448 0.00020243 19.7544 1.30172 22.1923 3.61807C24.6301 5.93442 25.9998 9.07602 26 12.3518C26 15.6278 24.6304 18.7695 22.1926 21.086C19.7547 23.4025 16.4482 24.7042 13.0004 24.7044Z" fill="#6FB1FF"/>
<path d="M13.0006 6.80108C14.9038 6.80108 15.1288 6.80776 15.8807 6.84058C16.3326 6.84561 16.7802 6.92449 17.2039 7.07354C17.5104 7.18651 17.7888 7.35913 18.0212 7.58007C18.2535 7.80101 18.4349 8.06554 18.5536 8.35682C18.7105 8.75947 18.7933 9.18471 18.7986 9.61402C18.8332 10.3285 18.8404 10.5422 18.8404 12.3513C18.8404 14.1604 18.8332 14.3734 18.7986 15.0878C18.7933 15.5172 18.7105 15.9424 18.5536 16.345C18.4348 16.637 18.2531 16.9023 18.0201 17.1237C17.7871 17.345 17.508 17.5177 17.2007 17.6306C16.7769 17.7796 16.3294 17.8581 15.8775 17.8631C15.1256 17.896 14.9006 17.903 12.9974 17.903C11.0942 17.903 10.8684 17.896 10.1164 17.8631C9.66461 17.858 9.21706 17.7795 8.79326 17.6306C8.48594 17.5177 8.20684 17.345 7.97385 17.1237C7.74087 16.9023 7.55916 16.637 7.44037 16.345C7.28352 15.9424 7.20063 15.5172 7.19533 15.0878C7.16078 14.3734 7.15355 14.1597 7.15355 12.3513C7.15355 10.543 7.16078 10.3285 7.19533 9.61402C7.20063 9.18471 7.28352 8.75947 7.44037 8.35682C7.55916 8.06482 7.74087 7.79957 7.97385 7.5782C8.20684 7.35684 8.48594 7.18417 8.79326 7.0713C9.21706 6.92235 9.66461 6.84346 10.1164 6.83835C10.8684 6.80552 11.0942 6.79884 12.9974 6.79884L13.0006 6.80108ZM12.9974 5.57742C11.0612 5.57742 10.8186 5.5856 10.0586 5.61842C9.46722 5.62971 8.88212 5.73613 8.32811 5.933C7.85346 6.10703 7.42241 6.37354 7.06266 6.71535C6.70292 7.05716 6.42245 7.46678 6.23929 7.91776C6.03206 8.44388 5.92014 8.99944 5.9083 9.5611C5.87375 10.284 5.86572 10.5146 5.86572 12.3543C5.86572 14.1939 5.87375 14.4239 5.9083 15.146C5.92007 15.7079 6.03199 16.2637 6.23929 16.7901C6.42296 17.2403 6.70366 17.6491 7.06337 17.9902C7.42309 18.3314 7.85388 18.5971 8.32811 18.7707C8.88206 18.9678 9.46719 19.0742 10.0586 19.0853C10.8186 19.1181 11.0612 19.1267 12.9974 19.1267C14.9335 19.1267 15.1754 19.1181 15.9362 19.0853C16.5273 19.0742 17.1122 18.9677 17.6659 18.7707C18.1403 18.5974 18.5713 18.3318 18.931 17.9906C19.2908 17.6495 19.5713 17.2405 19.7547 16.7901C19.962 16.2637 20.0739 15.7079 20.0857 15.146C20.1202 14.4239 20.1291 14.1932 20.1291 12.3543C20.1291 10.5154 20.1202 10.284 20.0857 9.5611C20.0738 8.99944 19.9619 8.44388 19.7547 7.91776C19.5719 7.46658 19.2915 7.05683 18.9317 6.71498C18.5719 6.37312 18.1407 6.1067 17.6659 5.933C17.1121 5.7362 16.5273 5.62978 15.9362 5.61842C15.1754 5.5856 14.9327 5.57742 12.9974 5.57742Z" fill="white"/>
<path d="M13.0007 8.87552C12.2767 8.87537 11.569 9.0794 10.967 9.46147C10.3649 9.84354 9.89567 10.3866 9.61851 11.0221C9.34136 11.6576 9.26875 12.3569 9.40989 13.0316C9.55103 13.7063 9.89957 14.3261 10.4114 14.8126C10.9233 15.2991 11.5755 15.6303 12.2855 15.7646C12.9956 15.8988 13.7315 15.8302 14.4004 15.567C15.0693 15.3038 15.641 14.8579 16.0432 14.2859C16.4454 13.7139 16.6601 13.0415 16.6601 12.3536C16.6602 11.8969 16.5656 11.4445 16.3818 11.0225C16.1979 10.6006 15.9284 10.2172 15.5886 9.89423C15.2488 9.57126 14.8453 9.31533 14.4013 9.14054C13.9572 8.96575 13.4813 8.87552 13.0007 8.87552ZM13.0007 14.6109C12.5306 14.6111 12.071 14.4788 11.6801 14.2307C11.2892 13.9827 10.9845 13.6299 10.8045 13.2172C10.6246 12.8046 10.5774 12.3507 10.6691 11.9126C10.7608 11.4745 10.9871 11.0719 11.3195 10.756C11.6519 10.4402 12.0754 10.2251 12.5365 10.138C12.9975 10.0509 13.4754 10.0956 13.9097 10.2666C14.3439 10.4376 14.7151 10.7275 14.9761 11.0989C15.2372 11.4704 15.3765 11.9069 15.3763 12.3536C15.3763 12.9523 15.126 13.5263 14.6805 13.9497C14.235 14.373 13.6307 14.6109 13.0007 14.6109Z" fill="white"/>
<path d="M17.66 8.73755C17.66 8.89822 17.6099 9.05505 17.5159 9.18864C17.422 9.32223 17.2885 9.42651 17.1323 9.48799C16.9761 9.54948 16.8042 9.56556 16.6384 9.53422C16.4726 9.50287 16.3203 9.42527 16.2007 9.31166C16.0812 9.19805 15.9998 9.05357 15.9668 8.89599C15.9338 8.73841 15.9507 8.57508 16.0154 8.42664C16.0801 8.2782 16.1897 8.15131 16.3303 8.06205C16.4709 7.97279 16.6361 7.92523 16.8052 7.92523C17.0319 7.92523 17.2493 8.01073 17.4096 8.16308C17.5699 8.31542 17.66 8.52211 17.66 8.73755Z" fill="white"/>
</svg>
