<svg width="26" height="25" viewBox="0 0 26 25" fill="none" xmlns="http://www.w3.org/2000/svg">
<path d="M13 24.7052C9.55211 24.705 6.24552 23.4032 3.80757 21.0866C1.36962 18.77 -6.58346e-09 15.6283 0 12.3522C0.000213054 9.07629 1.36992 5.93461 3.80784 3.61818C6.24577 1.30176 9.55225 0.000202436 13 0C16.4478 0 19.7544 1.30134 22.1924 3.61781C24.6304 5.93428 26 9.07623 26 12.3522C26.0001 13.9744 25.6639 15.5806 25.0107 17.0793C24.3574 18.578 23.3998 19.9399 22.1927 21.087C20.9855 22.2341 19.5524 23.1439 17.9751 23.7647C16.3978 24.3855 14.7073 24.7052 13 24.7052Z" fill="#6FB1FF"/>
<path d="M9.79658 9.59933H7.10596V17.8578H9.79658V9.59933Z" fill="white"/>
<path d="M8.4371 8.51982C8.75556 8.52285 9.0678 8.43559 9.33414 8.26961C9.60049 8.10363 9.80891 7.86639 9.933 7.58758C10.0571 7.30876 10.0912 7.00109 10.031 6.7038C9.97087 6.40652 9.81911 6.13287 9.59504 5.91773C9.37098 5.70259 9.08473 5.5558 8.7726 5.49561C8.46048 5.43543 8.13656 5.46474 7.84202 5.57989C7.54747 5.69503 7.29557 5.89072 7.11829 6.14222C6.94101 6.39372 6.84635 6.68969 6.84634 6.99243C6.84517 7.19203 6.8854 7.38971 6.96474 7.57452C7.04407 7.75934 7.16096 7.92751 7.3087 8.06936C7.45644 8.21121 7.63212 8.32398 7.82574 8.40124C8.01936 8.47851 8.22711 8.51892 8.4371 8.51982Z" fill="white"/>
<path d="M14.0969 13.5225C14.0969 12.3614 14.6592 11.67 15.7366 11.67C16.7256 11.67 17.2012 12.3339 17.2012 13.5225V17.8577H19.879V12.6287C19.879 10.4149 18.559 9.3464 16.716 9.3464C16.1925 9.33965 15.6762 9.46167 15.2172 9.70086C14.7582 9.94005 14.3722 10.2883 14.0969 10.7113V9.59836H11.5163V17.8569H14.0969V13.5225Z" fill="white"/>
</svg>
