<svg width="141" height="33" viewBox="0 0 141 33" fill="none" xmlns="http://www.w3.org/2000/svg">
<g clip-path="url(#clip0_5119_1777)">
<path d="M6.85996 8.74142C8.35087 7.21844 10.259 6.20491 12.3263 5.83794C14.3936 5.47098 16.5201 5.76831 18.4183 6.68969L19.7667 3.90621C17.1447 2.61745 14.1856 2.25217 11.3432 2.86642C8.50073 3.48066 5.93204 5.04051 4.03118 7.30664C3.86098 7.50909 3.72685 7.74103 3.63501 7.99175C3.89164 7.94164 4.15226 7.91642 4.41345 7.91642C5.29344 7.91431 6.15091 8.20346 6.85996 8.74142Z" fill="url(#paint0_linear_5119_1777)"/>
<path d="M9.92157 24.2263L10.2309 23.5878L10.4567 23.1179L10.5401 22.9493L10.8494 22.3144L11.1587 21.676L11.2178 21.5468L11.468 21.0375L11.7773 20.399L11.8711 20.2089L11.7982 20.0618L7.29783 10.7609L7.27698 10.7214C7.01385 10.1736 6.60757 9.71271 6.10401 9.39071C5.60046 9.06872 5.0197 8.89848 4.42735 8.89923C4.11597 8.90025 3.80617 8.9449 3.50643 9.03195C3.31646 9.08879 3.13065 9.15952 2.95041 9.24358C2.38415 9.51605 1.92195 9.97545 1.6368 10.5492C1.39013 11.0205 1.25494 11.5453 1.24226 12.0808C1.22957 12.6163 1.33976 13.1473 1.56382 13.6304L1.61247 13.7273L7.04762 24.9509L7.15187 25.1625L7.25265 25.3741L7.35691 25.5893L7.46116 25.801L7.56194 26.0126L7.6662 26.2242L7.76697 26.4394L7.87123 26.6511L7.97548 26.8627L8.07626 27.0743L8.18052 27.286L8.2813 27.5012L8.3091 27.555C8.32995 27.5084 8.34733 27.4653 8.36818 27.4223V27.4007L8.4064 27.3218L8.67747 26.7623L8.98675 26.1274L9.29604 25.4889L9.60186 24.8504L9.92157 24.2263Z" fill="url(#paint1_linear_5119_1777)"/>
<path d="M28.4963 2.33872C28.4477 2.19375 28.3896 2.05234 28.3225 1.91546C28.2712 1.80952 28.2144 1.70654 28.1522 1.60698C28.0966 1.52089 28.041 1.43839 27.9785 1.35948C27.9255 1.28808 27.8686 1.21982 27.8082 1.15502C27.7526 1.09404 27.6935 1.03665 27.6344 0.979261L27.4641 0.825022L27.2904 0.692305L27.1201 0.581109C27.061 0.545239 27.0054 0.50937 26.9463 0.480675C26.8902 0.44839 26.8321 0.419641 26.7726 0.394587L26.6023 0.322849C26.5432 0.301327 26.4876 0.276218 26.4285 0.258284L26.2583 0.211653L26.0845 0.16861L25.9142 0.143501L25.7405 0.121979H25.5702H25.3964C25.3408 0.121979 25.2817 0.121979 25.2261 0.121979H25.0524L24.8821 0.150674L24.7083 0.19013L24.5346 0.240348L24.3643 0.301327L24.1905 0.373066L24.0203 0.459152L23.8465 0.559588C23.7877 0.59448 23.7308 0.632803 23.6762 0.674371C23.6171 0.713827 23.5581 0.760458 23.5025 0.803501L23.3322 0.957739C23.2731 1.01154 23.214 1.07252 23.1584 1.1335C23.098 1.1983 23.0411 1.26656 22.9881 1.33796C22.9256 1.41687 22.87 1.49937 22.8144 1.58546C22.7522 1.68501 22.6954 1.78799 22.6441 1.89394V1.91187L22.6232 1.95133L22.4808 2.24546L22.3105 2.60415L22.1367 2.96285L21.963 3.32154L21.7927 3.68024L21.6189 4.03894L21.4486 4.39763L21.2749 4.75633V4.77785L21.115 5.11144L20.9413 5.47013L20.771 5.82883L20.5972 6.18752L20.4269 6.54622L20.2532 6.90492L20.0829 7.26361L19.9161 7.62231L19.7458 7.981L19.5721 8.3397L19.3983 8.69839L19.228 9.05709L19.0543 9.41579L18.884 9.77448L18.7102 10.1332L18.5399 10.4919L18.3662 10.8506L18.1959 11.2093L18.0221 11.568L17.8519 11.9267L17.6781 12.2854L17.5078 12.644L17.3341 13.0027L17.1638 13.3614L16.99 13.7201L16.8163 14.0788L16.646 14.4375L16.4722 14.7962L16.3019 15.1549L16.1282 15.5136L15.9579 15.8723L15.7841 16.231L15.6139 16.5897L15.4401 16.9484L15.2698 17.3071L15.0961 17.6658L14.9258 18.0245L14.752 18.3832L14.5817 18.7419L14.408 19.1006L14.2342 19.4593L14.0639 19.818L13.8902 20.1767L13.7199 20.5354L13.5461 20.894L13.3759 21.2527L13.2473 21.5182L13.209 21.5971L13.1117 21.798L13.0388 21.9522L12.865 22.3109V22.3432L12.792 22.4902L12.7086 22.666L12.5696 22.9494L12.5349 23.0211L12.3646 23.3798L12.2603 23.5914L12.1908 23.7349L12.0205 24.0936L11.9545 24.2299L11.9163 24.3052L11.8468 24.4523L11.673 24.811L11.6452 24.872L11.5027 25.1661L11.3359 25.5248L11.1657 25.8835L11.0336 26.1525L10.9919 26.2386L10.8216 26.5973L10.7243 26.7946L10.6479 26.9524L10.4776 27.3111L10.415 27.4367L10.3038 27.6662L10.1335 28.0249L10.1092 28.0751L9.998 28.3047L9.95977 28.38V28.4016C9.91478 28.4922 9.87532 28.5856 9.84162 28.6813C9.82564 28.7212 9.81172 28.7619 9.79992 28.8033C9.76133 28.9134 9.72999 29.026 9.70609 29.1405C9.67821 29.2659 9.65733 29.3928 9.64354 29.5207C9.64354 29.6319 9.62616 29.7467 9.62616 29.8579V29.8794C9.62616 29.9762 9.62616 30.0695 9.62616 30.1627C9.62616 30.256 9.64701 30.3529 9.66091 30.4461C9.66091 30.5322 9.69219 30.6147 9.71304 30.6972C9.73389 30.7797 9.75474 30.8514 9.78254 30.9268C9.80687 31.0057 9.83814 31.081 9.86942 31.1563C9.9007 31.2317 9.9007 31.2317 9.91807 31.2711L9.93892 31.3106L9.95977 31.35C9.99453 31.4218 10.0328 31.4899 10.071 31.5545L10.1127 31.6191C10.137 31.6621 10.1683 31.7051 10.1961 31.7446C10.2239 31.7841 10.2517 31.8271 10.283 31.8666L10.3316 31.9239C10.3664 31.9706 10.4046 32.0136 10.4428 32.0567V32.0782C10.4949 32.132 10.5436 32.1858 10.5957 32.2324C10.6513 32.2862 10.7069 32.3329 10.7625 32.3795C10.8181 32.4225 10.8737 32.4692 10.9328 32.5086L11.1031 32.6198H11.124L11.2734 32.7059L11.322 32.731L11.4471 32.792L11.534 32.8314L11.6174 32.8637L11.7599 32.9139H11.7912L11.9649 32.9642H12.0032L12.1352 32.9929L12.2603 33.0144H12.309H12.4793H12.5418H12.653H12.8581H13.0075H13.1778L13.3342 32.9893L13.5044 32.9498H13.567L13.6782 32.9175L13.8485 32.8566L14.0222 32.7848H14.0466L14.1925 32.7095C14.2516 32.6772 14.3107 32.6449 14.3663 32.6091L14.54 32.4943L14.7103 32.3616C14.7694 32.3149 14.8285 32.2647 14.8841 32.2109C14.9397 32.1571 14.9988 32.0961 15.0544 32.0351L15.1134 31.9706L15.2281 31.8307C15.2872 31.7518 15.3463 31.6657 15.3984 31.5832C15.4617 31.4837 15.5197 31.3807 15.5722 31.2747V31.2353L15.6069 31.1599L15.7146 30.9411L15.8884 30.5824L15.9162 30.5179L16.0587 30.2237L16.2255 29.865L16.3958 29.5063L16.5278 29.2373L16.5695 29.1512L16.5904 29.1082L16.7398 28.7961L16.8545 28.5666L16.9136 28.441L17.0873 28.0823L17.2576 27.7236L17.4314 27.3649L17.6016 27.0062L17.7754 26.6475L17.9457 26.2888L18.1194 25.9301L18.2897 25.5714L18.4635 25.2127L18.6338 24.854L18.8075 24.4954L18.9778 24.1367L19.1516 23.778L19.3218 23.4193L19.4956 23.0606L19.6694 22.7019L19.8396 22.3432L20.0134 21.9845L20.1837 21.6258L20.3574 21.2671L20.5277 20.9084L20.7015 20.5497L20.8718 20.191L21.0455 19.8323L21.2158 19.4736L21.3896 19.1149L21.5598 18.7562L21.7336 18.3975L21.9039 18.0388L22.0776 17.6801L22.2514 17.3214L22.4217 16.9627L22.5954 16.604L22.7657 16.2454L22.9395 15.8867L23.1098 15.528L23.2835 15.1693L23.4538 14.8106L23.6276 14.4519L23.7979 14.0932L23.9716 13.7345L24.1419 13.3758L24.3156 13.0171L24.4859 12.6584L24.6597 12.2997L24.8334 11.941L25.0037 11.5823L25.1775 11.2236L25.3478 10.8649L25.5215 10.5062L25.6918 10.1475L25.8656 9.78883L26.0359 9.43013L26.2096 9.07144L26.3799 8.71274L26.5537 8.35405L26.7239 7.99535L26.8977 7.63665L27.0714 7.27796L27.2417 6.91926L27.4155 6.56057L27.5858 6.20187L27.7595 5.84318L27.9298 5.48448L28.1036 5.12578L28.2739 4.76709V4.74557C28.3375 4.61583 28.3921 4.48158 28.4372 4.34383C28.5507 4.00338 28.6083 3.64573 28.6075 3.28568C28.615 2.96613 28.5776 2.64715 28.4963 2.33872Z" fill="url(#paint2_linear_5119_1777)"/>
<path d="M41.5838 14.9504L36.371 28.3477H34.7933L29.5806 14.9504H31.1722L35.5995 26.4502L40.0165 14.9504H41.5838Z" fill="#232323"/>
<path d="M44.7079 16.3494V20.8617H51.4323V22.2104H44.7079V26.9452H52.3532V28.337H43.2518V14.9504H52.3845V16.3494H44.7079Z" fill="#232323"/>
<path d="M65.4129 14.9504V28.337H64.1375L56.2697 17.6299V28.337H54.7963V14.9504H56.0717L63.9429 25.6862V14.9504H65.4129Z" fill="#232323"/>
<path d="M78.6845 14.9504V23.0319C78.6845 24.7141 78.2119 26.0592 77.2631 27.0779C76.3144 28.0966 75.0078 28.5988 73.3432 28.5988C71.6786 28.5988 70.3754 28.0931 69.4232 27.0779C68.471 26.0628 68.0018 24.7141 68.0018 23.0319V14.9504H69.5031V22.9924C69.4477 24.1042 69.8029 25.1964 70.497 26.0485C71.1573 26.8053 72.1095 27.1784 73.3501 27.1784C74.5907 27.1784 75.5395 26.7946 76.2102 26.0377C76.9115 25.1934 77.2711 24.103 77.2145 22.9924V14.9504H78.6845Z" fill="#232323"/>
<path d="M82.7678 16.3494V20.8617H89.5027V22.2104H82.7678V26.9452H90.4132V28.337H81.3187V14.9504H90.4514V16.3494H82.7678Z" fill="#232323"/>
<path d="M97.9577 23.6739H95.1984V28.3621H92.672V14.9576H98.9898C99.5876 14.9319 100.184 15.0368 100.74 15.2655C101.295 15.4942 101.798 15.8416 102.215 16.2848C102.906 16.9995 103.331 17.9422 103.417 18.9481C103.503 19.9539 103.243 20.9589 102.684 21.7872C102.176 22.5415 101.444 23.1054 100.599 23.3941L103.824 28.337H100.891L97.9577 23.6739ZM95.1776 21.3747H98.8091C99.0933 21.387 99.3771 21.3414 99.6443 21.2405C99.9114 21.1395 100.157 20.9852 100.366 20.7864C100.552 20.6008 100.701 20.3786 100.803 20.1329C100.905 19.8871 100.959 19.6228 100.96 19.3554C100.962 19.088 100.912 18.823 100.813 18.576C100.714 18.3289 100.568 18.1048 100.383 17.9168C100.189 17.7213 99.9581 17.5683 99.7049 17.4672C99.4517 17.3661 99.1812 17.319 98.9099 17.3286H95.1984L95.1776 21.3747Z" fill="#232323"/>
<path d="M105.547 14.9504H108.126V28.337H105.547V14.9504Z" fill="#232323"/>
<path d="M113.068 17.3429V20.6752H119.017V23.0319H113.068V28.337H110.527V14.9504H119.966V17.3429H113.068Z" fill="#232323"/>
<path d="M121.464 14.9504H124.042V28.337H121.464V14.9504Z" fill="#232323"/>
<path d="M132.695 28.6275C131.798 28.6535 130.904 28.4909 130.07 28.1494C129.235 27.808 128.476 27.2949 127.839 26.6414C127.202 25.9878 126.701 25.2074 126.366 24.3477C126.03 23.4879 125.867 22.5668 125.888 21.6401C125.864 20.7213 126.024 19.8073 126.358 18.9551C126.691 18.1029 127.191 17.3306 127.827 16.6865C128.46 16.0349 129.215 15.5233 130.046 15.1828C130.877 14.8424 131.767 14.6803 132.661 14.7065C134.134 14.6537 135.583 15.108 136.779 15.9978C137.806 16.7424 138.566 17.8169 138.94 19.0539L136.452 19.678C136.205 18.9408 135.727 18.3096 135.093 17.8846C134.375 17.3886 133.524 17.1377 132.661 17.1672C132.095 17.1414 131.53 17.2429 131.005 17.4647C130.481 17.6864 130.009 18.023 129.623 18.4513C128.854 19.3125 128.438 20.4477 128.463 21.6186C128.439 22.8026 128.857 23.9508 129.63 24.8253C130.01 25.2607 130.477 25.6051 131 25.8343C131.522 26.0636 132.087 26.1722 132.654 26.1525C133.517 26.1749 134.365 25.9246 135.086 25.4351C135.724 25.0242 136.208 24.4038 136.463 23.6739L138.923 24.3267C138.563 25.5554 137.811 26.6224 136.789 27.3541C135.606 28.2281 134.177 28.6745 132.723 28.6239L132.695 28.6275Z" fill="#232323"/>
<path d="M6.85996 8.74142C8.35087 7.21844 10.259 6.20491 12.3263 5.83794C14.3936 5.47098 16.5201 5.76831 18.4183 6.68969L19.7667 3.90621C17.1447 2.61745 14.1856 2.25217 11.3432 2.86642C8.50073 3.48066 5.93204 5.04051 4.03118 7.30664C3.86098 7.50909 3.72685 7.74103 3.63501 7.99175C3.89164 7.94164 4.15226 7.91642 4.41345 7.91642C5.29344 7.91431 6.15091 8.20346 6.85996 8.74142Z" fill="url(#paint3_linear_5119_1777)"/>
<path d="M9.92157 24.2263L10.2309 23.5878L10.4567 23.1179L10.5401 22.9493L10.8494 22.3144L11.1587 21.676L11.2178 21.5468L11.468 21.0375L11.7773 20.399L11.8711 20.2089L11.7982 20.0618L7.29783 10.7609L7.27698 10.7214C7.01385 10.1736 6.60757 9.71271 6.10401 9.39071C5.60046 9.06872 5.0197 8.89848 4.42735 8.89923C4.11597 8.90025 3.80617 8.9449 3.50643 9.03195C3.31646 9.08879 3.13065 9.15952 2.95041 9.24358C2.38415 9.51605 1.92195 9.97545 1.6368 10.5492C1.39013 11.0205 1.25494 11.5453 1.24226 12.0808C1.22957 12.6163 1.33976 13.1473 1.56382 13.6304L1.61247 13.7273L7.04762 24.9509L7.15187 25.1625L7.25265 25.3741L7.35691 25.5893L7.46116 25.801L7.56194 26.0126L7.6662 26.2242L7.76697 26.4394L7.87123 26.6511L7.97548 26.8627L8.07626 27.0743L8.18052 27.286L8.2813 27.5012L8.3091 27.555C8.32995 27.5084 8.34733 27.4653 8.36818 27.4223V27.4007L8.4064 27.3218L8.67747 26.7623L8.98675 26.1274L9.29604 25.4889L9.60186 24.8504L9.92157 24.2263Z" fill="url(#paint4_linear_5119_1777)"/>
<path d="M28.4963 2.33872C28.4477 2.19375 28.3896 2.05234 28.3225 1.91546C28.2712 1.80952 28.2144 1.70654 28.1522 1.60698C28.0966 1.52089 28.041 1.43839 27.9785 1.35948C27.9255 1.28808 27.8686 1.21982 27.8082 1.15502C27.7526 1.09404 27.6935 1.03665 27.6344 0.979261L27.4641 0.825022L27.2904 0.692305L27.1201 0.581109C27.061 0.545239 27.0054 0.50937 26.9463 0.480675C26.8902 0.44839 26.8321 0.419641 26.7726 0.394587L26.6023 0.322849C26.5432 0.301327 26.4876 0.276218 26.4285 0.258284L26.2583 0.211653L26.0845 0.16861L25.9142 0.143501L25.7405 0.121979H25.5702H25.3964C25.3408 0.121979 25.2817 0.121979 25.2261 0.121979H25.0524L24.8821 0.150674L24.7083 0.19013L24.5346 0.240348L24.3643 0.301327L24.1905 0.373066L24.0203 0.459152L23.8465 0.559588C23.7877 0.59448 23.7308 0.632803 23.6762 0.674371C23.6171 0.713827 23.5581 0.760458 23.5025 0.803501L23.3322 0.957739C23.2731 1.01154 23.214 1.07252 23.1584 1.1335C23.098 1.1983 23.0411 1.26656 22.9881 1.33796C22.9256 1.41687 22.87 1.49937 22.8144 1.58546C22.7522 1.68501 22.6954 1.78799 22.6441 1.89394V1.91187L22.6232 1.95133L22.4808 2.24546L22.3105 2.60415L22.1367 2.96285L21.963 3.32154L21.7927 3.68024L21.6189 4.03894L21.4486 4.39763L21.2749 4.75633V4.77785L21.115 5.11144L20.9413 5.47013L20.771 5.82883L20.5972 6.18752L20.4269 6.54622L20.2532 6.90492L20.0829 7.26361L19.9161 7.62231L19.7458 7.981L19.5721 8.3397L19.3983 8.69839L19.228 9.05709L19.0543 9.41579L18.884 9.77448L18.7102 10.1332L18.5399 10.4919L18.3662 10.8506L18.1959 11.2093L18.0221 11.568L17.8519 11.9267L17.6781 12.2854L17.5078 12.644L17.3341 13.0027L17.1638 13.3614L16.99 13.7201L16.8163 14.0788L16.646 14.4375L16.4722 14.7962L16.3019 15.1549L16.1282 15.5136L15.9579 15.8723L15.7841 16.231L15.6139 16.5897L15.4401 16.9484L15.2698 17.3071L15.0961 17.6658L14.9258 18.0245L14.752 18.3832L14.5817 18.7419L14.408 19.1006L14.2342 19.4593L14.0639 19.818L13.8902 20.1767L13.7199 20.5354L13.5461 20.894L13.3759 21.2527L13.2473 21.5182L13.209 21.5971L13.1117 21.798L13.0388 21.9522L12.865 22.3109V22.3432L12.792 22.4902L12.7086 22.666L12.5696 22.9494L12.5349 23.0211L12.3646 23.3798L12.2603 23.5914L12.1908 23.7349L12.0205 24.0936L11.9545 24.2299L11.9163 24.3052L11.8468 24.4523L11.673 24.811L11.6452 24.872L11.5027 25.1661L11.3359 25.5248L11.1657 25.8835L11.0336 26.1525L10.9919 26.2386L10.8216 26.5973L10.7243 26.7946L10.6479 26.9524L10.4776 27.3111L10.415 27.4367L10.3038 27.6662L10.1335 28.0249L10.1092 28.0751L9.998 28.3047L9.95977 28.38V28.4016C9.91478 28.4922 9.87532 28.5856 9.84162 28.6813C9.82564 28.7212 9.81172 28.7619 9.79992 28.8033C9.76133 28.9134 9.72999 29.026 9.70609 29.1405C9.67821 29.2659 9.65733 29.3928 9.64354 29.5207C9.64354 29.6319 9.62616 29.7467 9.62616 29.8579V29.8794C9.62616 29.9762 9.62616 30.0695 9.62616 30.1627C9.62616 30.256 9.64701 30.3529 9.66091 30.4461C9.66091 30.5322 9.69219 30.6147 9.71304 30.6972C9.73389 30.7797 9.75474 30.8514 9.78254 30.9268C9.80687 31.0057 9.83814 31.081 9.86942 31.1563C9.9007 31.2317 9.9007 31.2317 9.91807 31.2711L9.93892 31.3106L9.95977 31.35C9.99453 31.4218 10.0328 31.4899 10.071 31.5545L10.1127 31.6191C10.137 31.6621 10.1683 31.7051 10.1961 31.7446C10.2239 31.7841 10.2517 31.8271 10.283 31.8666L10.3316 31.9239C10.3664 31.9706 10.4046 32.0136 10.4428 32.0567V32.0782C10.4949 32.132 10.5436 32.1858 10.5957 32.2324C10.6513 32.2862 10.7069 32.3329 10.7625 32.3795C10.8181 32.4225 10.8737 32.4692 10.9328 32.5086L11.1031 32.6198H11.124L11.2734 32.7059L11.322 32.731L11.4471 32.792L11.534 32.8314L11.6174 32.8637L11.7599 32.9139H11.7912L11.9649 32.9642H12.0032L12.1352 32.9929L12.2603 33.0144H12.309H12.4793H12.5418H12.653H12.8581H13.0075H13.1778L13.3342 32.9893L13.5044 32.9498H13.567L13.6782 32.9175L13.8485 32.8566L14.0222 32.7848H14.0466L14.1925 32.7095C14.2516 32.6772 14.3107 32.6449 14.3663 32.6091L14.54 32.4943L14.7103 32.3616C14.7694 32.3149 14.8285 32.2647 14.8841 32.2109C14.9397 32.1571 14.9988 32.0961 15.0544 32.0351L15.1134 31.9706L15.2281 31.8307C15.2872 31.7518 15.3463 31.6657 15.3984 31.5832C15.4617 31.4837 15.5197 31.3807 15.5722 31.2747V31.2353L15.6069 31.1599L15.7146 30.9411L15.8884 30.5824L15.9162 30.5179L16.0587 30.2237L16.2255 29.865L16.3958 29.5063L16.5278 29.2373L16.5695 29.1512L16.5904 29.1082L16.7398 28.7961L16.8545 28.5666L16.9136 28.441L17.0873 28.0823L17.2576 27.7236L17.4314 27.3649L17.6016 27.0062L17.7754 26.6475L17.9457 26.2888L18.1194 25.9301L18.2897 25.5714L18.4635 25.2127L18.6338 24.854L18.8075 24.4954L18.9778 24.1367L19.1516 23.778L19.3218 23.4193L19.4956 23.0606L19.6694 22.7019L19.8396 22.3432L20.0134 21.9845L20.1837 21.6258L20.3574 21.2671L20.5277 20.9084L20.7015 20.5497L20.8718 20.191L21.0455 19.8323L21.2158 19.4736L21.3896 19.1149L21.5598 18.7562L21.7336 18.3975L21.9039 18.0388L22.0776 17.6801L22.2514 17.3214L22.4217 16.9627L22.5954 16.604L22.7657 16.2454L22.9395 15.8867L23.1098 15.528L23.2835 15.1693L23.4538 14.8106L23.6276 14.4519L23.7979 14.0932L23.9716 13.7345L24.1419 13.3758L24.3156 13.0171L24.4859 12.6584L24.6597 12.2997L24.8334 11.941L25.0037 11.5823L25.1775 11.2236L25.3478 10.8649L25.5215 10.5062L25.6918 10.1475L25.8656 9.78883L26.0359 9.43013L26.2096 9.07144L26.3799 8.71274L26.5537 8.35405L26.7239 7.99535L26.8977 7.63665L27.0714 7.27796L27.2417 6.91926L27.4155 6.56057L27.5858 6.20187L27.7595 5.84318L27.9298 5.48448L28.1036 5.12578L28.2739 4.76709V4.74557C28.3375 4.61583 28.3921 4.48158 28.4372 4.34383C28.5507 4.00338 28.6083 3.64573 28.6075 3.28568C28.615 2.96613 28.5776 2.64715 28.4963 2.33872Z" fill="url(#paint5_linear_5119_1777)"/>
</g>
<defs>
<linearGradient id="paint0_linear_5119_1777" x1="3.63501" y1="5.66023" x2="19.7667" y2="5.66023" gradientUnits="userSpaceOnUse">
<stop offset="0.38" stop-color="#6920F1"/>
<stop offset="0.82" stop-color="#EF307F"/>
</linearGradient>
<linearGradient id="paint1_linear_5119_1777" x1="-5.11195" y1="-4.20032" x2="15.3554" y2="30.5444" gradientUnits="userSpaceOnUse">
<stop offset="0.56" stop-color="#681AF3"/>
<stop offset="0.86" stop-color="#9A4DF3"/>
</linearGradient>
<linearGradient id="paint2_linear_5119_1777" x1="10.9919" y1="33.7461" x2="29.1712" y2="-2.32949" gradientUnits="userSpaceOnUse">
<stop stop-color="#FF9B60"/>
<stop offset="1" stop-color="#DC2276"/>
</linearGradient>
<linearGradient id="paint3_linear_5119_1777" x1="3.63501" y1="5.66023" x2="19.7667" y2="5.66023" gradientUnits="userSpaceOnUse">
<stop offset="0.38" stop-color="#6920F1"/>
<stop offset="0.82" stop-color="#EF307F"/>
</linearGradient>
<linearGradient id="paint4_linear_5119_1777" x1="-5.11195" y1="-4.20032" x2="15.3554" y2="30.5444" gradientUnits="userSpaceOnUse">
<stop offset="0.56" stop-color="#681AF3"/>
<stop offset="0.86" stop-color="#9A4DF3"/>
</linearGradient>
<linearGradient id="paint5_linear_5119_1777" x1="10.9919" y1="33.7461" x2="29.1712" y2="-2.32949" gradientUnits="userSpaceOnUse">
<stop stop-color="#FF9B60"/>
<stop offset="1" stop-color="#DC2276"/>
</linearGradient>
<clipPath id="clip0_5119_1777">
<rect width="140.049" height="33" fill="white"/>
</clipPath>
</defs>
</svg>
